<svg xmlns="http://www.w3.org/2000/svg" width="32" height="32" fill="none" viewBox="0 0 32 32"><path fill="currentColor" d="M3.512 23.89a2.35 2.35 0 0 0 1.602 1.722l.24 1.055h-.02v2.666h21.333v-2.666H8.91a1.1 1.1 0 0 0-.01-.37l-.26-1.152 13.809-3.14.26 1.15a1.18 1.18 0 0 0 1.414.89l1.15-.264a1.18 1.18 0 0 0 .89-1.413l-.334-1.47a2.35 2.35 0 0 0 .7-2.245l-.787-3.453a2.35 2.35 0 0 0-1.683-1.743l-2.732-4.504a3.7 3.7 0 0 0-3.976-1.684L6.862 9.656a3.69 3.69 0 0 0-2.86 3.24l-.515 5.243a2.35 2.35 0 0 0-.76 2.298zm4.027-.917a1.77 1.77 0 1 1-.787-3.45 1.77 1.77 0 0 1 .787 3.45m14.963-3.402a1.772 1.772 0 0 1-2.212-2.024 1.773 1.773 0 0 1 2.717-1.162 1.77 1.77 0 0 1-.505 3.186m-15.05-7.315 10.492-2.388a1.03 1.03 0 0 1 1.107.468l2.113 3.484-.754.172-13.395 3.05-.757.171.398-4.056a1.03 1.03 0 0 1 .796-.9M24.54 5.333l-1.873-2.666-.667 4L25.334 12l4 1.333-2.667-3.385 2.667-1.244-2.667-1.244 2.667-4.793z"/></svg>
